<?xml version="1.0" standalone="no"?>
<!DOCTYPE svg PUBLIC "-//W3C//DTD SVG 20010904//EN"
 "http://www.w3.org/TR/2001/REC-SVG-20010904/DTD/svg10.dtd">
<svg version="1.0" xmlns="http://www.w3.org/2000/svg"
 width="500.000000pt" height="500.000000pt" viewBox="0 0 500.000000 500.000000"
 preserveAspectRatio="xMidYMid meet">

<g transform="translate(0.000000,500.000000) scale(0.100000,-0.100000)" stroke="none">
<path d="M2375 3908 c-134 -79 -350 -200 -623 -352 l-183 -101 110 -3 110 -3
173 97 c95 53 234 130 308 172 74 42 157 88 183 104 l49 28 61 -33 c34 -18
116 -64 182 -101 66 -38 200 -113 298 -167 l177 -99 113 0 112 0 -90 51 c-49
28 -119 66 -155 86 -128 71 -387 216 -475 267 -116 68 -222 126 -227 125 -1 0
-57 -32 -123 -71z"/>
<path d="M2325 3613 c-93 -52 -197 -110 -230 -127 l-60 -31 109 -3 109 -3 126
70 126 69 35 -20 c19 -11 76 -43 126 -69 l91 -49 109 0 109 0 -95 53 c-52 29
-157 88 -232 130 -75 42 -140 77 -145 77 -4 0 -84 -44 -178 -97z"/>
<path d="M1240 2500 l0 -880 25 0 25 0 0 880 0 880 -25 0 -25 0 0 -880z"/>
<path d="M1350 2500 l0 -880 545 0 545 0 0 115 0 115 -425 0 -425 0 0 280 0
280 385 0 385 0 0 105 0 105 -385 0 -385 0 0 270 0 270 425 0 425 0 0 110 0
110 -545 0 -545 0 0 -880z"/>
<path d="M2590 2500 l0 -880 550 0 550 0 0 115 0 115 -430 0 -430 0 2 278 3
277 388 3 387 2 0 105 0 105 -390 0 -390 0 0 270 0 270 430 0 430 0 0 110 0
110 -550 0 -550 0 0 -880z"/>
<path d="M1660 2885 l0 -205 390 0 390 0 0 25 0 25 -367 2 -368 3 -3 153 -3
152 411 0 410 0 0 25 0 25 -430 0 -430 0 0 -205z"/>
<path d="M2900 2885 l0 -205 395 0 395 0 0 25 0 25 -370 0 -370 0 0 155 0 155
405 0 405 0 0 25 0 25 -430 0 -430 0 0 -205z"/>
<path d="M1660 2135 l0 -205 430 0 c423 0 430 0 430 20 0 19 -8 20 -407 22
l-408 3 0 160 0 160 363 3 c354 2 362 3 362 22 0 20 -7 20 -385 20 l-385 0 0
-205z"/>
<path d="M2900 2135 l0 -205 430 0 c423 0 430 0 430 20 0 20 -7 20 -405 20
l-405 0 0 165 0 165 365 0 c358 0 365 0 365 20 0 20 -7 20 -390 20 l-390 0 0
-205z"/>
<path d="M1595 1532 c28 -16 138 -78 245 -137 107 -59 272 -151 365 -205 94
-53 199 -113 235 -132 l65 -36 115 65 c63 36 196 111 295 166 99 56 263 148
365 205 l185 103 -120 -3 -120 -4 -150 -83 c-82 -46 -215 -121 -295 -166 -80
-45 -175 -99 -212 -119 l-67 -36 -96 55 c-54 31 -132 76 -174 99 -42 23 -159
89 -259 145 l-184 102 -121 5 -122 5 50 -29z"/>
<path d="M2050 1541 c14 -11 29 -21 33 -21 4 0 44 -20 87 -45 44 -25 102 -57
128 -72 26 -14 61 -33 77 -43 17 -10 52 -29 78 -44 l49 -27 81 44 c201 109
360 198 387 217 11 8 -18 9 -101 5 l-116 -6 -119 -64 c-66 -36 -124 -65 -131
-65 -7 0 -36 14 -64 31 -158 93 -186 103 -304 106 l-110 4 25 -20z"/>
</g>
</svg>
